<?xml version="1.0" standalone="no"?>
<!DOCTYPE svg PUBLIC "-//W3C//DTD SVG 20010904//EN"
 "http://www.w3.org/TR/2001/REC-SVG-20010904/DTD/svg10.dtd">
<svg version="1.0" xmlns="http://www.w3.org/2000/svg"
 width="700.000000pt" height="700.000000pt" viewBox="0 0 700.000000 700.000000"
 preserveAspectRatio="xMidYMid meet">
<metadata>
Created by potrace 1.11, written by Peter Selinger 2001-2013
</metadata>
<g transform="translate(0.000000,700.000000) scale(0.100000,-0.100000)"
fill="#000000" stroke="none">
<path d="M3309 6996 c-2 -2 -40 -6 -84 -10 -77 -6 -203 -21 -255 -30 -14 -3
-41 -7 -60 -10 -60 -9 -181 -36 -279 -62 -776 -206 -1446 -660 -1932 -1309
-41 -55 -91 -125 -111 -155 -79 -124 -108 -171 -108 -177 0 -3 -6 -14 -14 -22
-26 -30 -164 -315 -219 -456 -46 -116 -119 -336 -132 -395 -1 -8 -8 -33 -14
-55 -31 -120 -77 -395 -88 -533 -10 -121 -10 -488 -1 -602 9 -103 25 -233 39
-303 5 -29 12 -68 15 -87 11 -76 78 -322 121 -450 195 -577 535 -1088 1008
-1514 57 -52 271 -218 348 -271 236 -161 533 -312 817 -413 80 -29 264 -84
320 -96 14 -3 66 -15 115 -26 85 -18 128 -20 731 -20 374 0 662 4 690 10 223
44 529 138 703 217 274 123 480 242 708 410 261 192 525 453 719 713 174 233
294 438 424 725 62 135 158 423 186 555 5 27 23 93 32 125 3 11 8 320 9 687 4
714 7 660 -42 878 -52 237 -199 608 -341 862 -74 133 -263 422 -293 448 -4 3
-49 57 -102 120 -209 249 -470 482 -749 666 -423 279 -865 452 -1375 539 -16
2 -68 10 -115 15 -47 6 -98 13 -115 16 -34 6 -550 15 -556 10z m466 -260 c86
-6 157 -14 200 -22 11 -2 40 -7 65 -10 25 -3 97 -17 160 -30 63 -14 125 -27
138 -30 12 -2 75 -20 140 -40 283 -85 610 -238 847 -397 62 -42 232 -164 251
-182 6 -5 36 -30 65 -54 102 -84 374 -366 463 -481 307 -395 519 -843 622
-1315 16 -71 44 -230 49 -281 4 -32 8 -66 10 -74 6 -22 16 -231 17 -340 1
-101 -11 -351 -17 -361 -2 -3 -7 -32 -10 -65 -34 -342 -183 -801 -367 -1139
-68 -123 -194 -322 -241 -382 -9 -10 -53 -65 -98 -123 -158 -200 -434 -458
-659 -616 -427 -301 -973 -513 -1460 -569 -30 -3 -71 -8 -90 -10 -85 -10 -203
-16 -305 -17 -107 -1 -355 11 -365 17 -3 2 -41 6 -85 10 -44 4 -83 9 -86 11
-4 2 -24 6 -45 9 -22 3 -82 15 -134 26 -637 138 -1209 458 -1665 930 -291 302
-548 697 -684 1054 -13 33 -29 74 -36 90 -11 25 -36 105 -95 300 -10 35 -48
209 -56 262 -3 19 -7 44 -9 55 -3 11 -7 46 -11 77 -3 31 -8 65 -10 76 -16 83
-22 419 -10 583 11 161 44 385 73 497 17 66 22 88 29 125 10 51 114 349 154
440 275 630 724 1147 1315 1512 250 155 639 317 895 374 19 4 40 9 45 10 101
23 215 45 275 54 120 17 139 19 250 26 58 3 106 7 107 8 5 4 288 -2 368 -8z"/>
<path d="M1885 3393 l0 -1858 135 0 135 0 1 160 c3 286 13 410 48 591 66 337
249 628 520 829 185 136 429 247 836 379 80 26 154 51 165 56 11 4 36 13 55
20 39 13 40 14 160 60 387 149 630 348 758 621 51 109 90 237 108 354 4 28 9
57 10 65 10 52 17 192 18 373 l2 207 -137 0 -137 0 -1 -192 c-1 -185 -5 -278
-16 -343 -2 -16 -7 -48 -10 -70 -33 -223 -151 -432 -321 -565 -120 -95 -313
-182 -659 -298 -228 -77 -436 -151 -480 -172 -11 -5 -53 -23 -94 -40 -41 -18
-111 -51 -155 -75 l-82 -43 1 887 c0 487 -1 892 -3 899 -3 9 -40 12 -138 12
l-134 0 0 -992 -1 -993 -90 -90 c-50 -49 -118 -127 -151 -173 -34 -45 -63 -80
-66 -78 -2 3 -4 527 -4 1166 l0 1160 -137 0 -136 0 0 -1857z"/>
<path d="M5099 5043 c-1 -114 -2 -219 -4 -233 -1 -14 -5 -60 -9 -103 -27 -288
-126 -565 -271 -763 -128 -174 -329 -333 -565 -447 -146 -71 -242 -108 -565
-217 -268 -90 -398 -138 -497 -184 -31 -14 -59 -26 -62 -26 -12 0 -188 -107
-246 -150 -92 -68 -188 -171 -254 -272 -31 -47 -56 -89 -56 -92 0 -3 -11 -29
-24 -58 -35 -77 -71 -190 -82 -258 -3 -14 -9 -50 -15 -80 -16 -91 -23 -214
-24 -425 l0 -200 135 0 135 0 1 185 c1 174 9 336 19 370 2 8 7 33 10 55 4 22
8 45 9 50 57 228 142 367 303 495 144 115 270 172 733 330 373 128 435 152
624 246 60 30 112 52 115 49 3 -4 6 -405 6 -893 l0 -887 135 0 135 0 5 992 5
992 91 93 c78 80 157 177 201 244 9 15 12 -242 12 -1152 l1 -1170 128 1 c70 0
132 3 137 7 7 4 10 633 9 1855 l0 1848 -137 3 -137 3 -1 -208z"/>
</g>
</svg>
